# xmcd
#
# Track frame offsets: 
#        150
#        16757
#        31629
#        67103
#        85056
#        103364
#        125809
#        144375
#        164811
#        188046
#        200680
#
# Disc length: 3020 seconds
#
# Revision: 5
# Processed by: cddbd v1.5.2PL0 Copyright (c) Steve Scherf et al.
# Submitted via: ExactAudioCopy v1.0b3
#
DISCID=9c0bca0b
DTITLE=Hands on Strings - Offroad
DYEAR=2006
DGENRE=Instrumental
TTITLE0=Offroad
TTITLE1=Libertango
TTITLE2=Manha de Carnaval
TTITLE3=Childhood Dream
TTITLE4=Zulu
TTITLE5=L'isola Misteriosa
TTITLE6=Feria
TTITLE7=Oblivion
TTITLE8=Midnight Train
TTITLE9=Loro
TTITLE10=Back Home
EXTD=
EXTT0=
EXTT1=
EXTT2=
EXTT3=
EXTT4=
EXTT5=
EXTT6=
EXTT7=
EXTT8=
EXTT9=
EXTT10=
PLAYORDER=
